<svg width="13" height="14" viewBox="0 0 13 14" fill="none" xmlns="http://www.w3.org/2000/svg">
<path d="M13 1.125V12.375C13 12.6734 12.8815 12.9595 12.6705 13.1705C12.4595 13.3815 12.1734 13.5 11.875 13.5H9.0625C8.76413 13.5 8.47798 13.3815 8.267 13.1705C8.05603 12.9595 7.9375 12.6734 7.9375 12.375V1.125C7.9375 0.826631 8.05603 0.540483 8.267 0.329505C8.47798 0.118526 8.76413 0 9.0625 0H11.875C12.1734 0 12.4595 0.118526 12.6705 0.329505C12.8815 0.540483 13 0.826631 13 1.125ZM4.5625 0H1.75C1.45163 0 1.16548 0.118526 0.954505 0.329505C0.743526 0.540483 0.625 0.826631 0.625 1.125V12.375C0.625 12.6734 0.743526 12.9595 0.954505 13.1705C1.16548 13.3815 1.45163 13.5 1.75 13.5H4.5625C4.86087 13.5 5.14702 13.3815 5.358 13.1705C5.56897 12.9595 5.6875 12.6734 5.6875 12.375V1.125C5.6875 0.826631 5.56897 0.540483 5.358 0.329505C5.14702 0.118526 4.86087 0 4.5625 0Z" fill="url(#paint0_linear_3773_216)"/>
<defs>
<linearGradient id="paint0_linear_3773_216" x1="5.125" y1="3.98775e-07" x2="17.5" y2="6.75" gradientUnits="userSpaceOnUse">
<stop stop-color="#C4FFEA"/>
<stop offset="1" stop-color="#FBDF9C"/>
</linearGradient>
</defs>
</svg>
